<svg height="48pt" viewBox="0 0 48 48" width="48pt" xmlns="http://www.w3.org/2000/svg" xmlns:xlink="http://www.w3.org/1999/xlink"><linearGradient id="a" gradientTransform="matrix(46.3 0 0 46.674 0 1.243)" gradientUnits="userSpaceOnUse" x1=".183361" x2=".902744" y1=".249178" y2=".903477"><stop offset=".02608695652" stop-color="#b3ffab"/><stop offset=".98695652174" stop-color="#12fff7"/></linearGradient><path d="m12.649 8.402c.839-.332 1.7-.607 2.579-.823l-2.388-1.679zm8.347-1.377c1.286.064 2.555.252 3.791.558l-1.917-2.363zm8.099 2.166c1.262.644 2.457 1.424 3.564 2.329l.721-3.56zm6.577 5.389c.825 1.04 1.54 2.155 2.138 3.326l2.31-3.326zm3.999 8.808c.206 1.124.317 2.27.328 3.427l1.761-1.865zm.014 7.134c-.253 1.405-.657 2.782-1.205 4.108.165.012.325.038.479.078l2.681-3.208zm1.625 6.098c.356.494.69 1.04 1.02 1.59.069.114.139.228.207.342l.483-.952zm-4.31-9.62c0 2.297-.463 4.484-1.289 6.482 2.476 3.596 6.946 10.559 6.312 11.372-.02.025-.049.045-.084.064-2.589-.844-8.564-3.471-11.193-5.918h-.828c-.876 2.228-2.263 5.017-3.859 5-2.765-.029-3.892-3.913-6.67-4-2.781-.087-4.497 3.946-6.684 4-2.892.071-4.469-8.324-4.469-8.324h.063c-.752-.427-1.404-.858-1.928-1.281 0 0-2.159-1.088-2.988-3.793-.059-.192-.13-.37-.174-.579-.137-.858-.209-1.738-.209-2.634 0-.068.009-.133.01-.2-.001-.063-.01-.125-.01-.189 0-9.389 7.611-17 17-17s17 7.611 17 17zm-17.71 16h.05-.09zm-9.767-33.033c-1.319.812-2.55 1.78-3.663 2.893-3.75 3.75-5.86 8.84-5.86 14.14v.15l.01.04v.06.1-.31.1.05l-.01.06v.14c0 1.04.08 2.08.25 3.11.02.12.04.24.08.36l.13.45.06.2c.49 1.58 1.38 3.01 2.57 4.15.49.48 1.03.9 1.61 1.24.28.21.57.42.86.61.27 1.14.6 2.25.99 3.34.22.61.46 1.2.74 1.78.28.61.61 1.2.99 1.75.43.64.95 1.19 1.56 1.65.79.6 1.75.94 2.74.97h.13.03c.07 0 .13 0 .2-.01 1.12-.09 2.18-.5 3.06-1.19.62-.47 1.2-.98 1.73-1.53.42-.42.87-.81 1.35-1.16.07-.05.14-.08.23-.1.04.01.08.03.12.06.39.29.75.62 1.09.98.59.64 1.24 1.22 1.94 1.74 1.02.74 2.23 1.16 3.49 1.21h.09.02.16c1.09-.06 2.14-.48 2.97-1.2.62-.53 1.15-1.15 1.59-1.84.18-.26.34-.53.5-.81.13.09.27.17.4.25 1.09.67 2.2 1.29 3.35 1.85 1.07.53 2.16 1.03 3.27 1.5.88.37 1.78.71 2.69 1.01.94.32 1.99.14 2.78-.46l.08-.07c.26-.2.49-.44.67-.72.41-.61.61-1.35.56-2.08-.04-.58-.17-1.14-.39-1.68-.122-.331-.26-.661-.413-.984l.043-.086 1.76-3.494c.497-.986.122-2.231-.836-2.779l-2.004-1.147 1.843-2.221c.705-.849.475-1.94-.512-2.433l-2.091-1.046 2.39-2.543c.756-.804.653-1.994-.231-2.656l-4.579-3.431 4.65-6.706c.629-.908.244-1.644-.86-1.644h-7.89l.823-6.367c.142-1.094-.601-1.725-1.658-1.407l-7.665 2.304-3.069-3.778c-.696-.856-1.905-.929-2.699-.161l-3.762 3.639-6.054-4.259c-.903-.635-1.703-.257-1.786.843l-.54 7.206zm1.477 11.033c0-1.104.896-2 2-2s2 .896 2 2-.896 2-2 2-2-.896-2-2z" fill="url(#a)" fill-rule="evenodd"/></svg>