<?xml version="1.0" encoding="utf-8"?>
<!-- Generator: Adobe Illustrator 23.0.1, SVG Export Plug-In . SVG Version: 6.00 Build 0)  -->
<svg version="1.1" id="Capa_1" xmlns="http://www.w3.org/2000/svg" xmlns:xlink="http://www.w3.org/1999/xlink" x="0px" y="0px"
	 viewBox="0 0 283.46 283.46" style="enable-background:new 0 0 283.46 283.46;" xml:space="preserve">
<style type="text/css">
	.st0{fill:none;stroke:#EDC74D;stroke-width:2.7081;stroke-miterlimit:10;}
	.st1{opacity:0.8;fill:#DDB64A;}
	.st2{fill:#ED874D;stroke:#EDC74D;stroke-width:2.7081;stroke-miterlimit:10;}
	.st3{fill:#363733;}
	.st4{fill:#ED864D;stroke:#EDC74D;stroke-width:2.7081;stroke-miterlimit:10;}
	.st5{fill:#ED874D;stroke:#EDC74D;stroke-width:2.7081;stroke-linecap:round;stroke-linejoin:round;stroke-miterlimit:10;}
	.st6{fill:#EC874C;stroke:#EDC74D;stroke-width:2.7081;stroke-miterlimit:10;}
</style>
<g>
	<path class="st0" d="M270.48,174.12c-17.16,7.91-34.67,14.3-54.01,13.07c-4.3-0.27-4.32-0.05-3.75,4.37
		c0.61,4.66,1.08,9.33,0.62,14.06c-0.3,3.08-1.86,4.57-4.76,4.65c-4.43,0.12-8.88,0.37-13.29-0.46c-3.73-0.7-5.53-2.66-5.48-6.49
		c0.05-4.05,0.18-8.11,0.58-12.13c0.34-3.35-1.35-3.37-3.86-3.31c-2.91,0.07-3.44,1.27-3,3.91c0.72,4.33,0.5,8.75,0.42,13.12
		c-0.06,3.31-1.83,5.26-4.95,5.37c-4.43,0.15-8.89,0.25-13.29-0.49c-3.72-0.63-5.25-2.44-5.27-6.25c-0.02-3.94,0-7.89,0.11-11.84
		c0.06-2.18-0.67-3.12-2.97-3.19c-5.52-0.16-11.03-0.51-16.53-0.96c-2.33-0.19-2.82,0.92-2.77,2.89c0.11,4.16,0.3,8.33,0.19,12.48
		c-0.13,4.87-1.35,6.05-6,6.95c-3.9,0.76-7.76,0.43-11.61-0.25c-3.22-0.57-4.97-2.3-4.81-5.83c0.2-4.49,0.26-8.98,0.29-13.47
		c0.03-3.48-0.52-3.76-4.39-3.78c-3-0.01-2.19,2.04-2.2,3.64c-0.01,4.38,0.2,8.77,0.05,13.14c-0.15,4.42-2.18,6.3-6.56,6.37
		c-3.25,0.06-6.5,0.05-9.75-0.07c-3.8-0.14-5.9-2.08-6.73-5.86c-0.5-2.29-0.42-4.6-0.18-6.87c0.46-4.37,0.33-8.76,0.44-13.13
		c0.07-2.96-1.08-5.34-3.3-7.17c-6.3-5.2-9.95-11.97-11.8-19.88c-3.29-14.13-11.65-21.14-25.98-22.2
		c-5.5-0.41-11.04,0.04-16.51-1.13c-11.96-2.55-20.02-11.59-20.62-23.36c-0.52-10.14,5-18.29,14.64-21.5
		c16.76-5.57,31.35-1.46,44.07,10.38c7.13,6.64,12.17,14.76,15.62,23.91c1.59,4.22,8.48,18.04,22.18,2.91
		c7.16-11.44,16.88-20.23,28.37-26.93c8.9-5.19,18.64-8.31,28.93-9.03c14.98-1.04,28.23,3.83,40.37,12.5c3,2.14,5.62,4.82,8.89,6.56
		c2.61,1.68,4.75,3.84,6.46,6.44c3.92,6.15,8.56,11.78,12.16,18.17c2.34,4.16,4.16,8.68,7.4,12.29c0.2,0.23,0.37,0.48,0.53,0.74
		c1.12,2.51,3,4.34,5.13,5.95c2.21,1.79,4.27,3.73,5.94,6.06c0.68,1.96,2.28,2.8,4.08,3.41c0.27,0.16,0.52,0.34,0.75,0.54
		c6.06,4.06,12.79,5.61,19.97,5.56c1.55-0.01,4.06-0.63,4.35,1.01c0.38,2.09-2.41,1.85-3.79,2.65
		C273.41,172.5,272.11,172.99,270.48,174.12z"/>
	<path class="st1" d="M266.7,177.55c-17.16,7.91-34.67,14.3-54.01,13.07c-4.3-0.27-4.32-0.05-3.75,4.37
		c0.61,4.66,1.08,9.33,0.62,14.06c-0.3,3.08-1.86,4.57-4.76,4.65c-4.43,0.12-8.88,0.37-13.29-0.46c-3.73-0.7-5.53-2.66-5.48-6.49
		c0.05-4.05,0.18-8.11,0.58-12.13c0.34-3.35-1.35-3.37-3.86-3.31c-2.91,0.07-3.44,1.27-3,3.91c0.72,4.33,0.5,8.75,0.42,13.12
		c-0.06,3.31-1.83,5.26-4.95,5.37c-4.43,0.15-8.89,0.25-13.29-0.49c-3.72-0.63-5.25-2.44-5.27-6.25c-0.02-3.94,0-7.89,0.11-11.84
		c0.06-2.18-0.67-3.12-2.97-3.19c-5.52-0.16-11.03-0.51-16.53-0.96c-2.33-0.19-2.82,0.92-2.77,2.89c0.11,4.16,0.3,8.33,0.19,12.48
		c-0.13,4.87-1.35,6.05-6,6.95c-3.9,0.76-7.76,0.43-11.61-0.25c-3.22-0.57-4.97-2.3-4.81-5.83c0.2-4.49,0.26-8.98,0.29-13.47
		c0.03-3.48-0.52-3.76-4.39-3.78c-3-0.01-2.19,2.04-2.2,3.64c-0.01,4.38,0.2,8.77,0.05,13.14c-0.15,4.42-2.18,6.3-6.56,6.37
		c-3.25,0.06-6.5,0.05-9.75-0.07c-3.8-0.14-5.9-2.08-6.73-5.86c-0.5-2.29-0.42-4.6-0.18-6.87c0.46-4.37,0.33-8.76,0.44-13.13
		c0.07-2.96-1.08-5.34-3.3-7.17c-6.3-5.2-9.95-11.97-11.8-19.88C64.83,146,56.48,139,42.15,137.94c-5.5-0.41-11.04,0.04-16.51-1.13
		c-11.96-2.55-20.02-11.59-20.62-23.36c-0.52-10.14,5-18.29,14.64-21.5c16.76-5.57,31.35-1.46,44.07,10.38
		c7.13,6.64,12.17,14.76,15.62,23.91c1.59,4.22,8.48,18.04,22.18,2.91c7.16-11.44,16.88-20.23,28.37-26.93
		c8.9-5.19,18.64-8.31,28.93-9.03c14.98-1.04,28.23,3.83,40.37,12.5c3,2.14,5.62,4.82,8.89,6.56c2.61,1.68,4.75,3.84,6.46,6.44
		c3.92,6.15,8.56,11.78,12.16,18.17c2.34,4.16,4.16,8.68,7.4,12.29c0.2,0.23,0.37,0.48,0.53,0.74c1.12,2.51,3,4.34,5.13,5.95
		c2.21,1.79,4.27,3.73,5.94,6.06c0.68,1.96,2.28,2.8,4.08,3.41c0.27,0.16,0.52,0.34,0.75,0.54c6.06,4.06,12.79,5.61,19.97,5.56
		c1.55-0.01,4.06-0.63,4.35,1.01c0.38,2.09-2.41,1.85-3.79,2.65C269.62,175.92,268.32,176.42,266.7,177.55z"/>
	<path class="st2" d="M211.97,108.78c-2.15-2.71-1.91-3.09,1.21-4.7c3.63-1.87,7.43-2.01,11.31-1.79c3.11,0.18,4.46,1.9,3.43,4.7
		c-1.1,3-2.35,5.93-4.2,8.66c-1.77,2.61-2.9,2.18-4.5,0.15c-0.39-0.49-0.98-0.82-1.48-1.22
		C216.06,112.41,214.11,110.5,211.97,108.78z"/>
	<path class="st2" d="M99.31,119.18c1.28,1.1,2.94,1.42,4.45,1.75c3.08,0.68,2.78,2.05,1.17,3.91c-2.03,2.35-3.94,4.75-7.06,5.95
		c-1.98,0.76-3.48,0.81-5-0.63c-1.54-2.45-2.8-5.03-3.61-7.81c-0.83-2.82-0.12-3.72,2.76-3.86
		C94.48,118.38,96.91,118.63,99.31,119.18z"/>
	<path class="st2" d="M243.14,151.72c-0.26-0.57-0.48-1.17-0.8-1.7c-0.47-0.8-1.87-1.26-1.48-2.28c0.4-1.04,1.79-1.15,2.79-1.16
		c2.69-0.04,5.27-1,8-0.71c3.2,0.34,4.55,2.31,2.88,4.98c-1.52,2.44-2.27,5.66-5.57,6.66C247.24,155.36,245.3,153.43,243.14,151.72z
		"/>
	<path class="st3" d="M38.5,104.33c1.61,0.24,2.9,0.93,3.01,2.75c0.12,1.92-0.88,3.09-2.81,3.18c-1.75,0.08-2.92-0.86-3.05-2.62
		C35.51,105.71,36.66,104.69,38.5,104.33z"/>
	<path class="st4" d="M179.45,80.15c1.69-1.46,2.79-3.43,4.71-4.76c2.24-1.54,4.35-2.2,6.89-1.1c5.28,5.71,4.38,12.43,3.03,19.18
		c-0.18,0.9-0.57,1.62-2.05,1.05c-4.97-1.91-9.76-4.46-15.27-4.69c-1.51-0.06-1.27-1.11-0.81-2.11
		C177.11,85.21,178.28,82.68,179.45,80.15z"/>
	<path class="st2" d="M199.61,88.62c1.49-1.06,2.98-2.12,4.47-3.19c0.92-0.27,1.88-0.45,2.76-0.82c2.42-1.02,4.63-0.76,6.64,0.92
		c1.95,1.62,1.86,3.78,1.45,5.95c-0.66,3.47-1.57,6.89-3.06,10.11c-3.47,3.71-3.42,3.64-7.71,0.45c-2.59-1.93-5.3-3.72-8.09-5.34
		c-1.43-0.83-1.57-1.46-0.58-2.69C196.92,92.26,198.24,90.42,199.61,88.62z"/>
	<path class="st2" d="M133.91,79.52c2.27-4.46,3.07-4.53,7.76-2.47c3.08,1.35,5.2,3.73,7.72,5.7c1.06,1.85,2.13,3.69,3.16,5.56
		c0.66,1.19,0.48,1.89-1.05,2.28c-4.9,1.26-9.66,2.92-14.2,5.18c-1.91,0.95-3.16,1.14-3.68-1.82
		C132.77,89.06,133.41,84.32,133.91,79.52z"/>
	<path class="st4" d="M157.99,74.95c0.32-0.28,0.71-0.51,0.93-0.86c2.99-4.65,4.43-4.74,8.55-1.04c3.04,2.73,4.49,6.45,6.63,9.73
		c-0.03,1.93,0.61,4.28-0.26,5.7c-1.17,1.92-3.5-0.07-5.38,0.05c-3.85,0.25-7.78-0.18-11.54,0.85c-2.26,0.62-2.32-0.42-2.28-2.06
		C154.74,82.91,156.68,79.02,157.99,74.95z"/>
	<path class="st2" d="M118.23,103.54c-1.24-3.45-2.86-6.75-3.62-10.37c-0.52-2.45-0.04-4.54,1.73-6.22
		c1.64-1.56,3.59-1.08,5.49-0.45c1.95,0.64,3.72,1.65,5.44,2.76c1.61,1.74,3.38,3.36,4.79,5.24c1.31,1.74,2.12,3.45-0.96,4.78
		c-2.42,1.04-4.78,2.65-6.6,4.55C122.02,106.41,120.21,106.13,118.23,103.54z"/>
	<path class="st2" d="M103.29,117.15c-0.88-1.72-1.85-3.4-2.64-5.16c-2.43-5.43,0.15-9.2,6.12-9.08c3,0.06,5.63,1.36,8.34,2.39
		c1.01,0.38,1.93,0.99,3.07,0.91c0.73,0.94,1.39,1.68,0.1,2.92c-3.54,3.41-7.25,6.71-9.93,10.92c-0.73,1.15-1.34,0.63-2.02-0.04
		C105.34,119.03,104.31,118.1,103.29,117.15z"/>
	<path class="st2" d="M233.91,115.23c2.01,0.94,4.82,0.03,6.08,2.87c1.18,2.67-0.27,4.64-1.64,6.53c-1.52,2.09-3.59,3.7-5.54,5.41
		c-1.99,1.75-2.75,0.95-3.84-0.76c-1.74-2.72-3.62-5.37-5.5-8c-0.91-1.28-1.09-2.05,0.54-3.05
		C227.06,116.36,230.48,116.02,233.91,115.23z"/>
	<path class="st5" d="M237.93,145.18c-1.89-3.48-3.67-7.03-5.7-10.43c-1.04-1.75-0.47-2.19,1.2-2.58c3.19-0.74,6.4-0.77,9.62-0.62
		c3.72,0.17,5.47,3.2,3.92,6.58c-1.4,3.05-4.13,4.92-6.39,7.2C239.7,146.24,238.79,145.6,237.93,145.18
		C237.92,145.18,237.93,145.18,237.93,145.18z"/>
	<path class="st6" d="M253.53,160.81c-0.75-0.71-1.49-1.43-2.34-2.24c2.62-1.98,5.7-2.19,8.56-2.81c1.59-0.34,2.84,0.53,2.48,2.67
		c-0.73,4.4-2.22,5.28-6.04,3.42C255.33,161.43,254.41,161.15,253.53,160.81C253.52,160.8,253.53,160.81,253.53,160.81z"/>
</g>
</svg>
